<?xml version="1.0" encoding="utf-8"?>
<!-- Generator: Adobe Illustrator 18.0.0, SVG Export Plug-In . SVG Version: 6.00 Build 0)  -->
<!DOCTYPE svg PUBLIC "-//W3C//DTD SVG 1.1//EN" "http://www.w3.org/Graphics/SVG/1.1/DTD/svg11.dtd">
<svg version="1.1" id="Layer_1" xmlns="http://www.w3.org/2000/svg" xmlns:xlink="http://www.w3.org/1999/xlink" x="0px" y="0px"
	 viewBox="0 0 384.1 384.1" enable-background="new 0 0 384.1 384.1" xml:space="preserve">
<path fill="#AF3A5C" d="M293.3,28.8C263.9,10.6,229.2,0,192.1,0c-36.6,0-70.8,10.2-99.9,28C36.9,61.8,0,122.6,0,192.1
	c0,21.4,3.5,42,10,61.2c25.6,76,97.4,130.8,182.1,130.8c85.2,0,157.4-55.5,182.5-132.2c6.2-18.8,9.5-38.9,9.5-59.8
	C384.1,123.1,347.8,62.7,293.3,28.8z"/>
<g>
	<polygon fill="#005866" points="60.3,372.7 93.5,351.4 110.9,366.1 	"/>
	<polygon fill="#005866" points="322.6,372.7 289.7,351.4 272.3,366.1 	"/>
	<path fill="#AF3A5C" d="M192.1,384.1c85.2,0,157.4-55.5,182.5-132.2L293.3,28.8C263.9,10.6,229.2,0,192.1,0
		c-36.6,0-70.8,10.2-99.9,28L10,253.3C35.5,329.3,107.4,384.1,192.1,384.1z"/>
	<g>
		<path fill="#993456" d="M384.1,192.1c0-68.9-36.3-129.4-90.8-163.2l81.3,223.1C380.8,233.1,384.1,213,384.1,192.1z"/>
		<path fill="#993456" d="M0,192.1c0,21.4,3.5,42,10,61.2L92.1,28C36.9,61.8,0,122.6,0,192.1z"/>
	</g>
	<g>
		<g>
			<path fill="#333333" d="M130.1,240.2l-11.6,129.2c22.7,9.4,47.5,14.7,73.6,14.7c26.4,0,51.6-5.4,74.5-15.1L255,240.2H130.1z"/>
		</g>
		<g>
			<path d="M257.6,269.5l-2.2-29.4H130.1l-2.6,29.4c18.8,3.3,41.7,5.1,65.5,5.1C216.6,274.7,238.8,272.8,257.6,269.5z"/>
		</g>
		<ellipse fill="#333333" cx="192.5" cy="220.4" rx="123.1" ry="34.7"/>
		<ellipse cx="192.5" cy="220.4" rx="62.5" ry="14.2"/>
	</g>
	<g>
		<g>
			<path fill="#E6E6E6" d="M210.8,233.9l5.5-20.7h-48.5l5.5,20.7c0,0,7.7,0.6,18.8,0.6S210.8,233.9,210.8,233.9z"/>
		</g>
		<ellipse fill="#CCCCCC" cx="192.1" cy="221.1" rx="22" ry="8.4"/>
		<g>
			<path fill="#E6E6E6" d="M261.6,183.9c0,38.1-30.9,39-69,39s-69-0.9-69-39s30.9-69,69-69S261.6,145.7,261.6,183.9z"/>
			<g>
				<circle fill="#4D4D4D" cx="162.5" cy="181.6" r="7.5"/>
				<circle fill="#4D4D4D" cx="222.6" cy="181.6" r="7.5"/>
			</g>
			<g>
				<path fill="#CCCCCC" d="M194.4,203.3c0,0,0,0.3-0.1,0.8c0,0.1,0,0.3-0.1,0.4c0,0.2-0.1,0.4-0.1,0.6c-0.1,0.4-0.2,0.9-0.4,1.4
					c-0.1,0.2-0.2,0.5-0.3,0.7c-0.1,0.2-0.2,0.5-0.4,0.8c-0.2,0.5-0.6,1-0.9,1.6c-0.4,0.5-0.7,1-1.2,1.5c-0.4,0.5-0.9,0.9-1.4,1.4
					c-0.5,0.4-1,0.8-1.6,1.1c-0.5,0.4-1.1,0.6-1.6,0.9c-0.3,0.1-0.5,0.2-0.8,0.3c-0.1,0-0.3,0.1-0.4,0.1c-0.1,0-0.3,0.1-0.4,0.1
					c-0.3,0.1-0.5,0.1-0.7,0.2c-0.2,0-0.5,0.1-0.7,0.1c-0.5,0.1-0.9,0.1-1.2,0.1c-0.2,0-0.4,0-0.5,0c-0.2,0-0.3,0-0.4,0
					c-0.5,0-0.8,0-0.8,0s0.3,0,0.8-0.1c0.1,0,0.3,0,0.4-0.1c0.2,0,0.3-0.1,0.5-0.1c0.3-0.1,0.7-0.2,1.1-0.4c0.2-0.1,0.4-0.2,0.6-0.2
					c0.2-0.1,0.4-0.2,0.6-0.3c0.1-0.1,0.2-0.1,0.3-0.2c0.1-0.1,0.2-0.1,0.3-0.2c0.2-0.1,0.4-0.3,0.7-0.4c0.4-0.3,0.9-0.6,1.2-1
					c0.4-0.4,0.8-0.8,1.1-1.2c0.3-0.5,0.6-0.9,0.9-1.4c0.3-0.4,0.5-0.9,0.7-1.4c0.1-0.5,0.3-0.9,0.4-1.4c0-0.2,0.1-0.4,0.1-0.6
					c0-0.2,0-0.4,0.1-0.6c0.1-0.4,0.1-0.7,0.1-1c0-0.1,0-0.3,0-0.4c0-0.2,0-0.3,0-0.4c0-0.5,0-0.8,0-0.8L194.4,203.3z"/>
				<path fill="#CCCCCC" d="M204.4,215.4c0,0-0.3,0-0.8,0c-0.1,0-0.3,0-0.4,0c-0.2,0-0.3,0-0.5,0c-0.4,0-0.8,0-1.2-0.1
					c-0.2,0-0.5-0.1-0.7-0.1c-0.2-0.1-0.5-0.1-0.7-0.2c-0.1,0-0.3-0.1-0.4-0.1c-0.1,0-0.3-0.1-0.4-0.1c-0.3-0.1-0.5-0.2-0.8-0.3
					c-0.5-0.3-1.1-0.5-1.6-0.9c-0.6-0.3-1-0.7-1.6-1.1c-0.5-0.4-1-0.9-1.4-1.4c-0.5-0.5-0.8-1-1.2-1.5c-0.3-0.5-0.7-1-0.9-1.6
					c-0.1-0.3-0.2-0.5-0.4-0.8c-0.1-0.3-0.2-0.5-0.3-0.7c-0.2-0.5-0.3-0.9-0.4-1.3c0-0.2-0.1-0.4-0.1-0.6c0-0.2-0.1-0.3-0.1-0.5
					c-0.1-0.6-0.1-0.9-0.1-0.9h4c0,0,0,0.3-0.1,0.7c0,0.1,0,0.2,0,0.4c0,0.1,0,0.3,0,0.4c0,0.3,0,0.7,0.1,1c0,0.2,0,0.4,0.1,0.6
					c0,0.2,0.1,0.4,0.1,0.6c0.1,0.4,0.3,0.9,0.4,1.4c0.2,0.4,0.4,0.9,0.7,1.4c0.2,0.5,0.6,0.9,0.9,1.4c0.4,0.4,0.7,0.9,1.1,1.2
					c0.4,0.4,0.8,0.7,1.2,1c0.2,0.1,0.4,0.3,0.7,0.4c0.1,0.1,0.2,0.1,0.3,0.2c0.1,0.1,0.2,0.1,0.3,0.2c0.2,0.1,0.4,0.2,0.6,0.3
					c0.2,0.1,0.4,0.2,0.6,0.2c0.4,0.2,0.8,0.3,1.1,0.4c0.2,0,0.3,0.1,0.5,0.1c0.2,0,0.3,0,0.4,0.1
					C204.1,215.3,204.4,215.4,204.4,215.4z"/>
			</g>
			<path fill="#EA9292" d="M187.7,199.4c0-2.7,2.2-2.8,4.9-2.8s4.9,0.1,4.9,2.8s-2.2,4.9-4.9,4.9S187.7,202.1,187.7,199.4z"/>
		</g>
	</g>
	<path fill="#E6E6E6" d="M201.4,50.3C209.3,33.1,215.8,16.2,220,2c-2.6-0.4-5.2-0.7-7.9-1c-4.6-0.5-9.2-0.8-13.8-0.9
		C196.2,0,194.1,0,192.1,0c-0.3,0-0.6,0-0.8,0c-1.4,3-2.8,6.1-4.2,9.3c-2.1-3.9-4.5-6.8-7-8.9c-12.6,0.8-25,2.8-36.8,5.9
		c-0.7,0.4-1.3,0.8-1.9,1.1c-6,3.4-18,14.2-2.3,15.1c6.2,0.4,17.4-7.9,21.9,7.9c3.6,12.7,7.3,24.7,10.8,35.3
		c-2,32.9,10,58.1,18.2,60.4c4.8,1.4,3.3-5.9,2.4-18.4c1.6,1.1,3.1,1.5,4.5,1.1c7.7-2.2,8.4-24.7,2.8-54.7
		C200.3,52.9,200.8,51.6,201.4,50.3z"/>
	<g>
		<path fill="#E6E6E6" d="M139.1,22.5c6.2,0.4,17.4-7.9,21.9,7.9c3.6,12.7,7.3,24.7,10.8,35.3c0.5-8,1.8-16.6,4.3-25.3l-5,0.1
			c0,0-7.5-28.2-21.9-22.9c0,0,16.4-10.4,21.4-7.6c0,0,5.6,7.6,9.3,18.2c2.2-6.7,4.6-13,7.2-18.9c-2.1-3.9-4.5-6.8-7-8.9
			c-12.6,0.8-25,2.8-36.8,5.9c-0.7,0.4-1.3,0.8-1.9,1.1C135.3,10.8,123.3,21.6,139.1,22.5z"/>
		<path fill="#E6E6E6" d="M192.4,107.8c1.6,1.1,3.1,1.5,4.5,1.1c7.7-2.2,8.4-24.7,2.8-54.7C191.1,75.1,191.4,94.4,192.4,107.8z"/>
		<path fill="#E6E6E6" d="M171.8,65.8c-2,32.9,10,58.1,18.2,60.4c4.8,1.4,3.3-5.9,2.4-18.4C186.1,103.4,179.1,87.4,171.8,65.8z"/>
		<path fill="#E6E6E6" d="M191,18.7c2.2-5.9,4.7-12.4,7.3-18.6C196.2,0,194.1,0,192.1,0c-0.3,0-0.6,0-0.8,0c-1.4,3-2.8,6.1-4.2,9.3
			C188.5,11.9,189.8,15,191,18.7z"/>
		<path fill="#E6E6E6" d="M196.2,37.8c1.4,5.6,2.5,11.1,3.5,16.4c0.5-1.3,1.1-2.5,1.7-3.8C209.3,33.1,215.8,16.2,220,2
			c-2.6-0.4-5.2-0.7-7.9-1C208.3,13.6,202.4,28,196.2,37.8z"/>
		<path fill="#E6E6E6" d="M193.1,42.3l-9.9-1.5c0,0,3.3-9.9,7.8-22.1c-1.2-3.6-2.6-6.7-4-9.4c-2.5,5.9-4.9,12.3-7.2,18.9
			c1.3,3.8,2.4,7.9,2.9,12.2l-6.7,0.1c-2.4,8.8-3.8,17.3-4.3,25.3c7.3,21.6,14.3,37.6,20.6,42c-1-13.4-1.3-32.6,7.3-53.7
			c-1-5.2-2.1-10.7-3.5-16.4C195.2,39.4,194.2,41,193.1,42.3z"/>
		<path fill="#CCCCCC" d="M196.2,37.8c6.1-9.8,12.1-24.1,15.9-36.7c-4.6-0.5-9.2-0.8-13.8-0.9c-2.6,6.1-5.1,12.6-7.3,18.6
			c0.4,1.2,0.8,2.4,1.1,3.6C193.7,27.6,195,32.7,196.2,37.8z"/>
		<path fill="#CCCCCC" d="M193.1,42.3c1-1.4,2.1-2.9,3.1-4.6c-1.2-5-2.6-10.2-4.1-15.5c-0.4-1.3-0.7-2.5-1.1-3.6
			c-4.5,12.2-7.8,22.1-7.8,22.1L193.1,42.3z"/>
		<path fill="#CCCCCC" d="M179.9,28.2c-3.7-10.6-9.3-18.2-9.3-18.2c-4.9-2.8-21.4,7.6-21.4,7.6c14.4-5.3,21.9,22.9,21.9,22.9l5-0.1
			c0.1-0.3,0.1-0.5,0.2-0.8C177.4,35.8,178.6,32,179.9,28.2z"/>
		<path fill="#CCCCCC" d="M179.9,28.2c-1.2,3.7-2.4,7.5-3.6,11.5c-0.1,0.3-0.1,0.5-0.2,0.8l6.7-0.1C182.3,36.1,181.2,32,179.9,28.2z
			"/>
	</g>
	<g>
		<path fill="#F4CFA6" d="M226.7,123.3l-71.7,2.7l-3.5-85.6h74.4c13.7,0,24.8,11.1,24.8,24.8v33.4
			C250.5,111.9,240,122.8,226.7,123.3z"/>
		<g>
			<polyline fill="#F4CFA6" points="154.9,124.9 204.6,123.3 203.6,94.5 153.5,96.9 			"/>
			<path fill="#DDAD7F" d="M154.9,124.9c2.1-0.3,4.1-0.5,6.2-0.7c2.1-0.2,4.1-0.5,6.2-0.6c2.1-0.2,4.1-0.4,6.2-0.6l6.2-0.5
				c2.1-0.2,4.1-0.3,6.2-0.4l6.2-0.4c4.1-0.3,8.3-0.5,12.4-0.7l-2.3,2.5c-0.2-4.8-0.5-9.6-0.6-14.4c-0.2-4.8-0.3-9.6-0.4-14.4
				l2.5,2.3c-4.2,0.1-8.3,0.3-12.5,0.3l-6.3,0.1l-6.3,0.1c-4.2,0-8.4,0-12.5-0.1c-2.1,0-4.2-0.1-6.3-0.1c-2.1-0.1-4.2-0.1-6.3-0.3
				c2.1-0.3,4.1-0.6,6.2-0.9c2.1-0.3,4.2-0.5,6.2-0.7c4.2-0.5,8.3-0.9,12.5-1.3l6.2-0.5L191,93c4.2-0.3,8.3-0.6,12.5-0.9l2.4-0.2
				l0.1,2.5c0.2,4.8,0.4,9.6,0.6,14.4c0.2,4.8,0.3,9.6,0.4,14.4l0.1,2.4l-2.4,0c-4.1,0.1-8.3,0.1-12.4,0.1l-6.2,0
				c-2.1,0-4.1,0-6.2,0l-6.2-0.1c-2.1,0-4.1-0.1-6.2-0.2c-2.1-0.1-4.1-0.1-6.2-0.2C159.1,125.2,157,125,154.9,124.9z"/>
		</g>
		<g>
			<polyline fill="#F4CFA6" points="154.9,96.8 204.6,95.2 204.3,82.9 195.4,66.7 153.5,68.8 			"/>
			<path fill="#DDAD7F" d="M154.9,96.8c2.1-0.3,4.1-0.5,6.2-0.7c2.1-0.2,4.1-0.5,6.2-0.6c2.1-0.2,4.1-0.4,6.2-0.6l6.2-0.5
				c2.1-0.2,4.1-0.3,6.2-0.4l6.2-0.4c4.1-0.3,8.3-0.5,12.4-0.7l-2.3,2.5c-0.2-4.1-0.3-8.2-0.4-12.3l0.3,1.1l-4.4-8.1l-4.4-8.1
				l2.2,1.2c-3.5,0.1-7,0.2-10.5,0.3l-5.2,0.1l-5.2,0c-3.5,0-7,0-10.5-0.1c-1.7,0-3.5-0.1-5.3-0.2c-1.8-0.1-3.5-0.2-5.3-0.3
				c1.7-0.3,3.5-0.6,5.2-0.8c1.7-0.3,3.5-0.5,5.2-0.7c3.5-0.5,6.9-0.8,10.4-1.2l5.2-0.5l5.2-0.5c3.5-0.3,7-0.6,10.4-0.8l1.5-0.1
				l0.8,1.3l4.5,8.1l4.5,8.1l0.3,0.5l0,0.6c0.1,4.1,0.2,8.2,0.2,12.3l0,2.4l-2.4,0c-4.1,0.1-8.3,0.1-12.4,0.1l-6.2,0
				c-2.1,0-4.1,0-6.2,0l-6.2-0.1c-2.1,0-4.1-0.1-6.2-0.2c-2.1-0.1-4.1-0.1-6.2-0.2C159.1,97.1,157,96.9,154.9,96.8z"/>
		</g>
		<g>
			<polyline fill="#F4CFA6" points="154.9,68.9 201.6,67.2 200.6,42 153.5,40.9 			"/>
			<path fill="#DDAD7F" d="M154.9,68.9c3.9-0.5,7.8-1,11.6-1.3c1.9-0.2,3.9-0.4,5.8-0.6l5.8-0.5c1.9-0.2,3.9-0.3,5.8-0.4l5.8-0.4
				c3.9-0.3,7.8-0.5,11.7-0.7l-2.3,2.4c-0.3-4.2-0.5-8.4-0.7-12.6c-0.2-4.2-0.4-8.4-0.5-12.6l2.4,2.3c-3.9-0.1-7.8-0.3-11.7-0.5
				c-3.9-0.2-7.8-0.5-11.7-0.7c-2-0.1-3.9-0.3-5.9-0.5c-2-0.2-3.9-0.3-5.9-0.5c-3.9-0.4-7.8-0.8-11.7-1.3c3.9-0.3,7.9-0.6,11.8-0.8
				c2-0.1,3.9-0.2,5.9-0.2c2-0.1,3.9-0.1,5.9-0.2c3.9,0,7.8-0.2,11.8-0.2c3.9,0,7.8,0,11.8,0c1.3,0,2.3,1,2.4,2.3l0,0.1
				c0.2,4.2,0.4,8.4,0.6,12.6c0.2,4.2,0.3,8.4,0.4,12.6l0-0.1c0,1.3-1,2.2-2.3,2.2h0c-3.9,0-7.8,0.3-11.7,0.3l-5.8,0.1
				c-1.9,0-3.9,0-5.8,0l-5.8-0.1c-1.9,0-3.9-0.1-5.8-0.1C162.7,69.3,158.8,69.1,154.9,68.9z"/>
		</g>
		<g>
			<path fill="#F4CFA6" d="M204.7,60.4L204.7,60.4c0,12.8-8.5,24-20.8,27.6l-5.1,1.5V43.1l44.1-2.8"/>
			<path fill="#DDAD7F" d="M204.7,60.4c0.3,3.5-0.1,7.2-1.2,10.6c-0.6,1.7-1.3,3.4-2.2,5c-0.9,1.6-1.9,3.1-3.1,4.6
				c-1.2,1.4-2.5,2.7-3.9,3.9c-0.7,0.6-1.5,1.1-2.2,1.7c-0.8,0.5-1.6,1-2.4,1.5c-1.6,0.9-3.4,1.6-5.2,2.2l-5,1.6l-2.6,0.8l-0.1-2.8
				l-0.1-5.8l-0.1-5.8c-0.1-3.9-0.1-7.7-0.1-11.6c-0.1-7.7-0.1-15.5,0-23.2l0-2.3l2.3-0.1c3.7-0.2,7.4-0.4,11-0.5
				c1.8-0.1,3.7-0.1,5.5-0.2l5.5-0.1c1.8-0.1,3.7,0,5.5,0c1.8,0,3.7,0,5.5,0c1.8,0,3.7,0,5.5,0.1c1.8,0.1,3.7,0.1,5.5,0.2
				c-1.8,0.4-3.6,0.7-5.5,1c-1.8,0.3-3.7,0.6-5.5,0.8c-1.8,0.3-3.7,0.5-5.5,0.7c-1.8,0.2-3.7,0.5-5.5,0.7l-5.5,0.6
				c-1.8,0.2-3.7,0.4-5.5,0.6c-3.7,0.3-7.3,0.7-11,0.9l2.3-2.4c0.1,7.7,0.1,15.5,0,23.2c0,3.9-0.1,7.7-0.1,11.6l-0.1,5.8l-0.1,5.8
				l-2.6-2l5.1-1.3c1.6-0.4,3.2-1,4.7-1.7c0.8-0.3,1.5-0.7,2.2-1.1c0.7-0.4,1.4-0.9,2.1-1.3c1.4-1,2.7-2,3.9-3.2
				c1.2-1.2,2.3-2.5,3.3-3.9c0.5-0.7,0.9-1.4,1.4-2.2c0.4-0.7,0.8-1.5,1.2-2.3c0.4-0.8,0.7-1.6,1-2.4c0.3-0.8,0.6-1.6,0.8-2.5
				C204.3,63.9,204.6,62.2,204.7,60.4z"/>
		</g>
		<g>
			<path fill="#F4CFA6" d="M243.1,105.8h-8.3c-18.1,0-32.8-14.7-32.8-32.8v0"/>
			<path fill="#DDAD7F" d="M243.1,105.8c0,0-0.9,0.2-2.6,0.5c-0.8,0.1-1.8,0.3-2.9,0.5c-0.6,0.1-1.2,0.2-1.8,0.2
				c-0.2,0-0.3,0-0.5,0.1l-0.2,0l-0.1,0l-0.1,0l-0.1,0l0,0c-0.3,0-0.7,0-1,0.1c-0.7,0-1.4,0.1-2.2,0.1c-0.8,0-1.6-0.1-2.5-0.2
				c-0.4,0-0.9-0.1-1.3-0.1c-0.4-0.1-0.9-0.2-1.3-0.2c-0.9-0.2-1.8-0.3-2.7-0.6c-0.9-0.3-1.8-0.5-2.7-0.9c-0.9-0.4-1.8-0.8-2.7-1.2
				c-0.9-0.5-1.7-1-2.6-1.5c-0.9-0.5-1.6-1.2-2.5-1.7c-0.8-0.6-1.5-1.3-2.3-2c-0.4-0.3-0.7-0.7-1.1-1l-1-1.1
				c-0.7-0.7-1.3-1.5-1.8-2.3c-0.5-0.8-1.1-1.5-1.6-2.4c-0.4-0.8-0.9-1.6-1.3-2.4c-0.3-0.8-0.7-1.6-1-2.4c-0.3-0.8-0.5-1.6-0.7-2.4
				c-0.2-0.8-0.4-1.5-0.5-2.2c-0.2-1.5-0.4-2.8-0.4-4c0-1.2-0.1-2.2,0.1-3c0.2-1.7,0.4-2.6,0.4-2.6s0.3,0.9,0.6,2.5
				c0.1,0.8,0.5,1.7,0.8,2.8c0.3,1.1,0.8,2.2,1.3,3.5c0.2,0.6,0.6,1.2,0.9,1.9c0.3,0.6,0.6,1.3,1,2c0.4,0.7,0.8,1.3,1.2,2
				c0.5,0.6,0.9,1.3,1.4,2c1,1.3,2,2.6,3.2,3.8l0.9,0.9l1,0.9c0.6,0.6,1.3,1.2,2,1.7c1.3,1.1,2.8,2,4.3,2.9c0.8,0.4,1.5,0.8,2.2,1.2
				c0.8,0.4,1.5,0.6,2.3,1c0.7,0.4,1.5,0.5,2.3,0.8c0.4,0.1,0.7,0.3,1.1,0.4c0.4,0.1,0.7,0.2,1.1,0.3c0.7,0.2,1.4,0.4,2.1,0.5
				c0.8,0.1,1.5,0.2,2.2,0.3c0.3,0.1,0.7,0.1,1,0.2l0,0l0,0c0,0-0.1,0-0.1,0l0.1,0l0.1,0l0.2,0c0.2,0,0.3,0,0.5,0.1
				c0.6,0.1,1.2,0.2,1.8,0.2c1.1,0.1,2.1,0.3,2.9,0.5C242.2,105.6,243.1,105.8,243.1,105.8z"/>
		</g>
		<g>
			<line fill="#F4CFA6" x1="181.1" y1="125.4" x2="180.1" y2="110.7"/>
			<polygon fill="#DDAD7F" points="178.6,125.6 180.1,110.7 183.6,125.3 			"/>
		</g>
	</g>
	<g>
		<rect x="241.9" y="46.4" fill="#FFFFFF" width="33.9" height="70.5"/>
		<polygon fill="#BDCCD4" points="242.1,96.8 275.8,98.7 242.1,100.6 		"/>
		<path fill="#BDCCD4" d="M258.9,83c0,0,0.1,0,0.4,0c0.3,0,0.7,0,1.2,0.1c0.5,0.1,1.1,0.1,1.8,0.2c0.7,0.1,1.5,0.3,2.3,0.7
			c0.4,0.2,0.8,0.4,1.3,0.7c0.4,0.3,0.8,0.8,1.1,1.4c0.1,0.2,0.1,0.3,0.2,0.5l0.1,0.3l0,0.1c0-0.1,0,0.1,0,0.1v0l0,0l0,0l0,0.2
			c0,0.1,0,0.1,0,0.2c0,0.2-0.1,0.4-0.1,0.6c-0.2,0.7-0.6,1.3-1.1,1.9c-0.5,0.5-1,0.9-1.6,1.3c-0.6,0.4-1.2,0.6-1.8,0.8
			c-1.2,0.4-2.5,0.6-3.8,0.7l-0.5,0c-0.2,0-0.3,0-0.4,0c-0.3,0-0.7-0.1-1-0.1c-0.6-0.1-1.3-0.3-1.9-0.5c-0.6-0.2-1.2-0.5-1.8-0.8
			c-0.6-0.3-1.1-0.8-1.6-1.3c-0.5-0.5-0.9-1.1-1.1-1.9c0-0.2-0.1-0.4-0.1-0.6c0-0.2,0-0.4,0-0.6l0-0.2l0-0.1l0-0.2
			c0-0.1,0.1-0.3,0.2-0.5c0-0.1,0.1-0.2,0.1-0.3l0.1-0.2c0.1-0.1,0.2-0.3,0.3-0.4c0.1-0.1,0.2-0.2,0.3-0.3c0.1-0.1,0.2-0.2,0.3-0.3
			c0.4-0.3,0.9-0.6,1.3-0.7c0.8-0.4,1.6-0.5,2.3-0.7c0.7-0.1,1.3-0.2,1.8-0.2c0.5,0,0.9-0.1,1.2-0.1C258.8,83,258.9,83,258.9,83z
			 M258.9,83c0,0-0.1,0-0.4,0c-0.3,0-0.7,0-1.1,0.1c-0.5,0.1-1.1,0.2-1.7,0.4c-0.6,0.2-1.3,0.6-2,1.1c-0.3,0.2-0.6,0.6-0.8,0.9
			c0,0.1-0.1,0.2-0.1,0.3c0,0.1-0.1,0.2-0.1,0.3c0,0.1-0.1,0.2-0.1,0.3l0,0.1c0,0,0,0.1,0,0.1c0,0.1,0,0.1,0,0.2l0,0.2l0,0.1
			c0,0.1,0-0.1,0-0.1l0,0l0,0l0,0c0,0.1,0,0.1,0.1,0.2c0,0.1,0.1,0.1,0.1,0.2c0.2,0.2,0.5,0.4,0.8,0.6c0.3,0.2,0.7,0.4,1.2,0.5
			c0.2,0.1,0.4,0.1,0.7,0.2l0.3,0.1c0.1,0,0.2,0.1,0.3,0.1c0.2,0,0.5,0.1,0.7,0.1c0.2,0,0.5,0.1,0.7,0.1c0.2,0,0.5,0,0.7,0l0.8,0
			c1,0,2-0.1,2.9-0.2c0.2,0,0.5-0.1,0.7-0.1c0.2-0.1,0.4-0.1,0.7-0.2c0.4-0.1,0.8-0.3,1.2-0.5c0.3-0.2,0.6-0.4,0.8-0.6
			c0,0,0.1-0.1,0.1-0.1c0,0,0-0.1,0.1-0.1l0-0.2l0,0l0,0l0,0c0,0,0,0.2,0,0.1l0-0.1l0-0.1c0-0.1,0-0.2,0-0.2c0-0.3-0.1-0.7-0.4-1
			c-0.2-0.3-0.5-0.6-0.8-0.9c-0.6-0.5-1.3-0.9-2-1.1c-0.6-0.2-1.2-0.4-1.7-0.4c-0.5-0.1-0.9-0.1-1.1-0.1C259,83,258.9,83,258.9,83z"
			/>
		<g>
			<path fill="#333333" d="M276.1,128.2h97.3c-11.3-32-30.9-60-56.3-82h-41.1V128.2z"/>
		</g>
	</g>
	<g>
		<path fill="#00677F" d="M322.6,372.7c-71.1-38.6-191.2-38.6-262.3,0l-33.4-61.5c92.3-50.1,236.8-50.1,329.1,0L322.6,372.7z"/>
	</g>
	<g>
		<g>
			<path fill="#FFFFFF" d="M91.2,305.1c4.6-1.2,9.1-0.2,12.3,1.5c-1.6,2.6-2.4,4-3.9,6.6c-2.1-1-3.9-1.4-6.2-0.7
				c-4.3,1.2-6.9,5.7-5.2,11.6c1.8,6.1,5.7,8.6,10.1,7.4c2.6-0.7,4.2-2.3,5.3-4.2c2.5,1.6,3.8,2.4,6.2,4c-2.1,3.9-5.5,6.5-9.6,7.6
				c-8.7,2.4-17.7-0.8-21.3-11.7C75.5,317.5,81.4,307.7,91.2,305.1z"/>
			<path fill="#FFFFFF" d="M131.6,324.1c-3.9,0.7-5.8,1-9.7,1.8c-0.1,3-0.2,4.4-0.3,7.4c-3.7,0.7-5.5,1.1-9.1,2
				c0.9-11.8,2.1-23.6,3.7-35.4c4.8-0.9,7.1-1.4,11.9-2.2c5.6,10.4,10.9,21,15.9,31.8c-3.8,0.5-5.7,0.8-9.5,1.4
				C133.3,328.2,132.8,326.8,131.6,324.1z M128.8,317.6c-0.4-0.9-0.6-1.3-1-2.2c-1.4-3-3-6.9-4.5-10.1c-0.1,0-0.1,0-0.2,0
				c-0.2,3.5-0.3,7.7-0.6,11c-0.1,1-0.1,1.4-0.2,2.4C124.9,318.2,126.2,318,128.8,317.6z"/>
			<path fill="#FFFFFF" d="M144.5,295.3c4.1-0.5,6.1-0.7,10.2-1.1c3.9,5.7,5.8,8.6,9.4,14.4c1.6,2.9,2.4,4.4,3.9,7.4
				c0.1,0,0.1,0,0.2,0c-0.7-3.6-1.8-8.6-2-12.8c-0.2-3.9-0.4-5.9-0.6-9.8c3.8-0.2,5.7-0.3,9.5-0.5c0.4,11.3,0.9,22.5,1.3,33.8
				c-3.7,0.1-5.6,0.2-9.3,0.5c-3.4-5.8-5.2-8.7-8.9-14.5c-1.6-2.9-2.5-4.3-4.1-7.2c-0.1,0-0.1,0-0.2,0c0.8,3.8,2.1,8.6,2.4,12.7
				c0.4,3.9,0.6,5.8,0.9,9.7c-3.4,0.3-5.2,0.5-8.6,0.9C147.2,317.7,145.9,306.5,144.5,295.3z"/>
			<path fill="#FFFFFF" d="M192,300.1c-3.9,0-5.9,0-9.8,0.1c-0.1-3-0.1-4.5-0.1-7.5c10-0.2,20,0,29.9,0.6c-0.2,3-0.3,4.5-0.5,7.5
				c-3.9-0.2-5.9-0.3-9.8-0.5c-0.4,10.5-0.5,15.8-0.9,26.3c-3.6-0.1-5.4-0.2-9.1-0.2C191.9,315.9,191.9,310.7,192,300.1z"/>
			<path fill="#FFFFFF" d="M234.7,329.5c-1.7-4.8-2.7-7.2-4.6-12c-1.4-0.2-2.1-0.2-3.6-0.4c-0.5,4.5-0.7,6.8-1.2,11.3
				c-3.6-0.4-5.4-0.6-9-0.8c0.9-11.2,1.8-22.5,2.7-33.7c5.7,0.5,8.5,0.7,14.2,1.4c8.1,1,14.6,4.5,13.3,12.9
				c-0.8,4.8-3.6,7.5-7.2,8.8c2.3,5.6,3.4,8.5,5.5,14.1C240.7,330.3,238.7,330,234.7,329.5z M227.3,310.1c1.4,0.1,2.1,0.2,3.4,0.4
				c3.8,0.4,6-0.8,6.3-3.7c0.4-2.9-1.5-4.1-5.4-4.5c-1.4-0.2-2.1-0.2-3.5-0.4C227.8,305.1,227.6,306.8,227.3,310.1z"/>
			<path fill="#FFFFFF" d="M256.7,298.8c3.9,0.7,5.9,1.1,9.8,1.9c-2.3,11-4.6,22-7,33.1c-3.6-0.8-5.4-1.1-8.9-1.8
				C252.6,320.9,254.7,309.9,256.7,298.8z"/>
			<path fill="#FFFFFF" d="M276.1,302.9c5.7,1.4,8.6,2.1,14.3,3.7c7.9,2.2,13.8,7,11.1,15.1c-2.6,7.9-10.2,9.2-17.3,7.1
				c-1.7-0.5-2.5-0.7-4.2-1.2c-1.1,4.1-1.7,6.2-2.8,10.4c-3.5-0.9-5.3-1.4-8.9-2.2C270.9,324.8,273.5,313.8,276.1,302.9z
				 M285.6,321.9c3.7,1,5.9-0.1,6.7-3c0.9-2.9-0.8-4.6-4.3-5.6c-1.6-0.4-2.4-0.7-4-1.1c-0.9,3.5-1.4,5.2-2.3,8.6
				C283.3,321.2,284.1,321.4,285.6,321.9z"/>
		</g>
	</g>
</g>
</svg>
