<?xml version="1.0" encoding="utf-8"?>
<!-- Generator: Adobe Illustrator 18.0.0, SVG Export Plug-In . SVG Version: 6.00 Build 0)  -->
<!DOCTYPE svg PUBLIC "-//W3C//DTD SVG 1.1//EN" "http://www.w3.org/Graphics/SVG/1.1/DTD/svg11.dtd">
<svg version="1.1" id="Layer_1" xmlns="http://www.w3.org/2000/svg" xmlns:xlink="http://www.w3.org/1999/xlink" x="0px" y="0px"
	 viewBox="0 0 78.4 33.3" enable-background="new 0 0 78.4 33.3" xml:space="preserve">
<g>
	<path fill="#FFFFFF" d="M38.3,10.4c3.1,0,4.6-1.4,4.6-4.7c0-2.1-1.2-2.9-3.2-2.9c-3.1,0-4.5,1.4-4.5,4.7
		C35.1,9.6,36.2,10.4,38.3,10.4z"/>
	<path fill="#FFFFFF" d="M56.5,32.6"/>
	<path fill="#FFFFFF" d="M76,31.8c1.4-1.8,2.3-4.6,2.3-4.6l-1.2,0.4c0,0-4.4,0.8-4.6-2.6l0-0.3c0,0,1.7-0.8,3.3-2.3
		c1.2-1.2,2.3-3,2.3-5.3c0,0-0.3-4.2-4.9-4.2c0,0-1.2-0.1-2.6,0.6c-1.7,0.9-3.8,3-5.3,7.6c0,0,2.6-2.7,5.1-2.7s1.6,2.2-0.4,3.2
		c-0.3,0.1-0.5,0.2-0.8,0.3c-1.1,0.5-2.7,0.9-4.7,0.9L69.3,0l-1.2,0.5l-6.9,3l-3.4,21c0,0-1,4.3-7.1,4.3c0,0-2.7,0.1-2.9-1.9
		l2.2-1.3c0.6-0.3,1.2-0.7,1.9-1.1l0.1-0.1l0,0c2.4-1.5,4.9-3.7,4.9-6.4c0.1-4.3-2.7-5.4-5.2-5.4c-2.5,0-10,2.2-10,11.7
		c0,0,0.3,2.5,0.5,3.1c0,0-3.9,2.3-3.9-1l2.7-13.6c0,0-7.6-1-10.8,3.1l0.8-3.2c0,0-4,1.2-5.5,0.7c-0.1,0-0.7-0.3-0.9-0.5
		c-0.2-0.2-0.3,0-0.3,0c-0.4,1.7-2,13.4-3.4,14.8c0,0-4.6,0.9-4.6-2.9c0,0,5.8-2.5,5.8-7.3S16.8,13,16.8,13s-4.9-0.2-7.8,8.4
		c0,0,2.6-2.7,5.1-2.7s1.6,2.2-0.4,3.2c-2.1,1-5.4,1.1-5.4,1.1L13,0L4.7,3.6L0,32.9c0,0,4.5,0.8,6.2-2.5l1.1-4.3
		c0,0,1.9-2.5,3.6,0.2c0,0,0.8,4.9,4,6.2c3.2,1.3,7.5,0.7,9.3-0.3c1.8-1,2.5-2.7,2.5-2.7l2.3-10.3c0,0,4.8-4.7,4.5-0.3l-2.2,9.8
		c0,0-1,4.3,3.1,4.3c1.8,0,3.6-0.8,5.1-1.4l3.4-1.9c0.4,0.7,2.2,3.7,8.5,3.7c2,0,3.6-0.3,4.9-0.7c0,0,1.5-0.5,2.8-1.4
		c1.3-0.9,2.1-1.8,2.1-1.8s2-2.6,2.4-3.4c0,0,1.9-2.5,3.6,0.2c0,0,0.2,5.1,3.4,6.5c0,0,1,0.6,2.7,0.2C75.2,32.5,76,31.8,76,31.8z
		 M50.2,18.7c0,0,2.3,0.2,1,2.8c0,0-0.6,0.8-1.8,1.6c-0.5,0.4-2.1,1.3-2.1,1.3C47.3,23.6,47.2,18.7,50.2,18.7z"/>
</g>
</svg>
